<svg id="Layer_1" data-name="Layer 1" xmlns="http://www.w3.org/2000/svg" xmlns:xlink="http://www.w3.org/1999/xlink" viewBox="0 0 595.28 595.28"><defs><style>.cls-1{fill:none;}.cls-2{clip-path:url(#clip-path);}.cls-3{fill:#343332;}.cls-4{fill:#e6352c;}.cls-5{fill:#2072b9;}.cls-6{fill:#39a9e0;}.cls-7{fill:#1d1d1b;opacity:0.2;}.cls-8{fill:#4bbbeb;}.cls-10,.cls-18,.cls-9{fill:#fff;}.cls-9{stroke:#fff;stroke-miterlimit:10;stroke-width:2px;}.cls-18,.cls-9{fill-rule:evenodd;}.cls-11{fill:#f8b232;}.cls-12{fill:#e75024;}.cls-13{fill:#f6f6f6;}.cls-14{fill:#3d3d3c;}.cls-15{fill:#be2126;}.cls-16{fill:#dbdada;}.cls-17{fill:#ededed;}</style><clipPath id="clip-path"><circle class="cls-1" cx="181.92" cy="-372.07" r="297.64" transform="translate(316.38 19.66) rotate(-45)"/></clipPath></defs><g class="cls-2"><path class="cls-3" d="M212.62,76c-7.12-7.06-17.35-16.78-14.94-29.32s13.83-23,26.59-23.47c8.37-.26,18.73-1.31,26.17,2.5,20.21,10.34,24.84,13.17,37.7,19.24,6.9-13.4-10.51-21.54-22.25-28.55-7.9-4.72-37.62-9.07-42.67-8.07a37.48,37.48,0,0,0-12.45,5.31c-8.24,5.21-15.22,12.76-18.65,21.91s-3.93,18.45-.61,27.63C196.7,77.53,206.27,78.69,212.62,76Z"/><path class="cls-3" d="M242.11,9.86A81.94,81.94,0,0,1,213.7-17.89c-1.47-2.39-2.83-4.86-4.17-7.32-1-1.83-2-3.65-2.93-5.5a47.66,47.66,0,0,1-4.67-12.84c-3.83,3.1-19.38,9.83-24,11.7,6.64,10.88,39.7,42.51,41.39,50.46A52.3,52.3,0,0,1,242.11,9.86Z"/><path class="cls-4" d="M71.79-162.34C94.33-241.47,161.9-291.6,222.71-274.28s91.88,95.51,69.34,174.64S202,29.62,141.12,12.31,49.26-83.2,71.79-162.34Z"/><path class="cls-5" d="M148.61,371.21c0,6.15-6.13,0-6.13-12.26-24.55,18.41,0,55.22-24.55,73.61-6.13-12.26-6.13-30.68-12.27-30.68a23.66,23.66,0,0,0-5.69-3q2.07,31.28,4.32,62.52c1.84,25.63,3.86,51.7,13,75.73,5.3,8.94,10.92,14.67,18.42.41q21.43-117.33,34.08-236.06,2.78-26,5.18-51.95c-.61-.35-1.15-.71-1.82-1C160.88,291.44,154.75,328.28,148.61,371.21Z"/><path class="cls-4" d="M203.23-62.75c2.38-26.58,4.67-54.19-4.55-79.23s-33.5-46.69-60-43.75c-31.35,3.48-49.83,37.46-55.44,68.51C78.39-90.51,79-63.15,79.74-36Q85.59,181.61,100,398.9a23.66,23.66,0,0,1,5.69,3c6.14,0,6.14,18.42,12.27,30.68,24.55-18.39,0-55.2,24.55-73.61,0,12.26,6.13,18.41,6.13,12.26,6.14-42.93,12.27-79.77,24.54-122.7.67.33,1.21.69,1.82,1,1.61-17,3.14-34,4.69-51Q191.45,67.88,203.23-62.75Z"/><path class="cls-6" d="M74.44-33.72q6.15,124.25,15,248.32c1.84,25.64,3.86,51.7,13,75.73,7.26,21.65,13.1,16.1,18.43.41Q142.35,173.43,155,54.68c3.14-29.43,5.86-58.92,8.52-88.4Z"/><path class="cls-4" d="M345.43-488.85A46.93,46.93,0,0,0,325-513.93c-15.47-9.33-34.18-11-52.23-11.9-36.13-1.73-151.77-9-163.62,178.91C117.77-223.29-4.49-224.59-9.24,42.16A14.93,14.93,0,0,0,6.83,57.29C279.67,35.48,371-238.18,272.49-346.92c-5.28-12.16-.5-31.24-19-46.71a29,29,0,0,0-4.67-3.18,15.33,15.33,0,0,0-1.89-1c.23-.25.54-.43.79-.68,14.23-11.9,12-6.5,21.22-17.55,5-5.89,11.42-10.24,18.47-13.8,14.67-7.54,32-12,44.36-20.67,6.38-4.49,11.41-10.13,14-17.92A31.86,31.86,0,0,0,345.43-488.85Z"/><path class="cls-5" d="M277.45-144.15c-24.54-18.41-18.41,24.54-42.93,24.54,0-12.28,0-18.41-6.15-24.54-12.27,18.4-24.55,30.68-36.81,49.08-30.68-18.4-36.81,6.14-67.49,12.27v-24.55c-12.27,6.14-18.41,18.42-24.54,24.55,6.13-36.81,12.27-73.63,30.68-104.31-24.55-6.13-36.82-6.13-55.22,18.41v-43c-10.82,7.21-21.65,16.58-32.46,26.79C16.7-138-7.18-72.85-9.24,42.16A14.93,14.93,0,0,0,6.83,57.29C219.85,40.26,322.2-130.28,310-256,297-220,290.09-182.11,277.45-144.15Z"/><path class="cls-7" d="M78.05,35.39A114.81,114.81,0,0,1,117.87-9q-.54,11.52-1.07,23c30.46-26.56,62.27-55.13,74.4-93.67a378.79,378.79,0,0,1-71.28,45.55A146.06,146.06,0,0,1,131.3-69.21a104.17,104.17,0,0,0-29.76,21.68q-1-12.07-2-24.15L66.17-44.22a580.82,580.82,0,0,1,34.1-122.6c-7.45,2.86-13,9.16-17.9,15.44A300,300,0,0,0,42.3-83.89q8.07-46.51,12.13-93.56c-14.33,23.17-20.89,50.21-26.14,76.94Q18.83-52.35,14.08-3.43c-1.07,11-1.87,22.59,2.69,32.68A147.32,147.32,0,0,1,35.69-21.3q1.06,17.19,2.13,34.36c.24,3.92,1.4,8.89,5.28,9.43A160.94,160.94,0,0,1,81.29-33.63,324.72,324.72,0,0,1,78.05,35.39Z"/></g><circle class="cls-8" cx="297.64" cy="297.64" r="297.64"/><path class="cls-9" d="M165.49,351.29h38.94v-112c12.6.58,24.76-.21,36.34,2,16.35,3.13,28,18.51,28.89,34.72A38.76,38.76,0,0,1,244.17,315c-1,.4-2.08.84-3.51,1.41l26.53,41.07c-4.79,1-7.9,1-10.6-3.44-7.95-13.08-16.47-25.82-24.75-38.7-.87-1.36-1.64-2.78-2.28-3.88,5.21-1.35,10.45-2,15.05-4a31.86,31.86,0,0,0,17.74-35.64,32.18,32.18,0,0,0-30.94-25c-6.62-.1-13.24,0-20.44,0V357.79H141.72v-6.12c18.18-2.45,31.95-12,41.41-27.72,6.66-11.07,8.18-23.29,6-35.7-4.74-27.26-28.08-45.49-56.1-44.49-24.44.87-46.67,21.21-50.47,44.88C78.36,314.91,95.3,347,130.8,352.09c1.49,4.55,0,6.16-4.91,6.12-24.66-.19-49.32-.08-74-.09-1.46,0-2.93-.16-5-.27v-111H17.25v-6.53H83.31v6.35H54V351.19h51.82c-42.1-25.73-35.24-77.05-11-98.5a61.77,61.77,0,0,1,87.58,5.49C202.57,281.23,205,326.07,165.49,351.29Z"/><rect class="cls-10" x="322.36" y="315.57" width="132.69" height="19.68" transform="translate(110.08 -98.09) rotate(16.72)"/><path class="cls-10" d="M398.53,347.81c-3.51-3.55-8.57-8.43-7.38-14.73S398,321.51,404.3,321.3c4.13-.14,9.25-.66,12.93,1.26,10,5.19,12.28,6.61,18.63,9.65,3.42-6.72-5.19-10.81-11-14.33-3.91-2.37-18.6-4.55-21.09-4.05a18.19,18.19,0,0,0-6.15,2.66,22.85,22.85,0,0,0-9.23,11,19.89,19.89,0,0,0-.3,13.87C390.67,348.59,395.4,349.17,398.53,347.81Z"/><path class="cls-10" d="M413.11,314.6a40.78,40.78,0,0,1-14-13.93c-.73-1.2-1.4-2.44-2.06-3.68-.49-.91-1-1.83-1.45-2.75a24.35,24.35,0,0,1-2.3-6.45c-1.9,1.56-9.59,4.93-11.84,5.87C384.7,299.13,401,315,401.87,319A25.77,25.77,0,0,1,413.11,314.6Z"/><path class="cls-10" d="M328.93,228.13c11.13-39.73,44.54-64.9,74.59-56.21s45.42,48,34.28,87.7-44.54,64.91-74.6,56.22S317.79,267.88,328.93,228.13Z"/><path class="cls-10" d="M366.89,496.06c0,3.09-3,0-3-6.16-12.14,9.25,0,27.73-12.14,37-3-6.15-3-15.4-6.06-15.4a12.14,12.14,0,0,0-2.81-1.5q1,15.7,2.13,31.39c.91,12.88,1.91,26,6.43,38,2.62,4.49,5.39,7.37,9.11.21q10.59-58.92,16.84-118.53Q378.73,448,379.93,435c-.3-.18-.57-.36-.9-.53C373,456,369.93,474.5,366.89,496.06Z"/><path class="cls-10" d="M393.9,278.15c1.18-13.35,2.3-27.22-2.26-39.79s-16.55-23.45-29.67-22c-15.5,1.75-24.63,18.81-27.4,34.4-2.38,13.42-2.08,27.15-1.72,40.77q2.89,109.29,10,218.4a12.14,12.14,0,0,1,2.81,1.5c3,0,3,9.25,6.06,15.4,12.14-9.23,0-27.71,12.14-37,0,6.16,3,9.25,3,6.16,3-21.56,6.07-40.06,12.14-61.62.33.17.6.35.9.53q1.19-12.83,2.31-25.63Q388.08,343.75,393.9,278.15Z"/><path class="cls-10" d="M330.23,292.72q3,62.38,7.44,124.7c.91,12.87,1.91,26,6.44,38,3.58,10.87,6.47,8.08,9.1.2q10.59-58.92,16.85-118.54c1.55-14.77,2.89-29.58,4.21-44.39Z"/><path class="cls-10" d="M464.19,64.18a23.53,23.53,0,0,0-10.1-12.6c-7.65-4.69-16.89-5.51-25.81-6-17.87-.86-75-4.5-80.88,89.84,4.25,62.09-56.18,61.43-58.53,195.38a7.43,7.43,0,0,0,7.94,7.6c134.87-10.95,180-148.37,131.32-203-2.61-6.1-.25-15.68-9.4-23.45a14.33,14.33,0,0,0-2.31-1.6c-.3-.18-.6-.33-.93-.49.11-.12.27-.22.39-.34,7-6,5.94-3.27,10.49-8.81a28.46,28.46,0,0,1,9.13-6.93c7.25-3.79,15.83-6,21.92-10.38a17.68,17.68,0,0,0,6.92-9A16.29,16.29,0,0,0,464.19,64.18Z"/><path class="cls-10" d="M330.51,224.94c9.09-12.32,15.16-12.32,27.29-9.24-9.1,15.4-12.13,33.89-15.16,52.37,3-3.07,6.06-9.24,12.13-12.32v12.32c15.16-3.07,18.19-15.4,33.36-6.16,6.06-9.24,12.13-15.4,18.19-24.64,3,3.08,3,6.16,3,12.32,12.12,0,9.09-21.57,21.22-12.32,6.25-19.06,9.64-38.11,16.07-56.16a90,90,0,0,0-5.83-24.84c-9.2,21.53-26.91,43.44-46.63,40.94,3-6.16-6.06-6.16-3-12.32H379V172.57c-18.2,3.07-21.23,21.57-36.39,27.72,0-9.24,9.09-15.4,0-24.65a44.56,44.56,0,0,1-9,10c-5.74,9.4-12.57,19.09-19.15,31.21a128.06,128.06,0,0,1,16.05-13.45Z"/><path class="cls-10" d="M430.58,237.27c-12.13-9.25-9.1,12.32-21.22,12.32,0-6.16,0-9.24-3-12.32-6.06,9.24-12.13,15.4-18.19,24.64-15.17-9.24-18.2,3.09-33.36,6.16V255.75c-6.07,3.08-9.1,9.25-12.13,12.32,3-18.48,6.06-37,15.16-52.37-12.13-3.08-18.2-3.08-27.29,9.24V203.37a128.06,128.06,0,0,0-16.05,13.45c-12.76,23.53-24.57,56.25-25.59,114a7.43,7.43,0,0,0,7.94,7.6c105.3-8.55,155.89-94.19,149.84-157.31C440.22,199.16,436.83,218.21,430.58,237.27Z"/><path class="cls-10" d="M464.19,64.18a23.53,23.53,0,0,0-10.1-12.6c-7.65-4.69-16.89-5.51-25.81-6-17.87-.86-75-4.5-80.88,89.84,1.47,21.52-4.83,35.51-13.79,50.17a44.56,44.56,0,0,0,9-10c9.09,9.25,0,15.41,0,24.65,15.16-6.15,18.19-24.65,36.39-27.72v12.32h12.13c-3,6.16,6.07,6.16,3,12.32,19.72,2.5,37.43-19.41,46.63-40.94a70.18,70.18,0,0,0-12.69-20.83c-2.61-6.1-.25-15.68-9.4-23.45a14.33,14.33,0,0,0-2.31-1.6c-.3-.18-.6-.33-.93-.49.11-.12.27-.22.39-.34,7-6,5.94-3.27,10.49-8.81a28.46,28.46,0,0,1,9.13-6.93c7.25-3.79,15.83-6,21.92-10.38a17.68,17.68,0,0,0,6.92-9A16.29,16.29,0,0,0,464.19,64.18Z"/><path class="cls-10" d="M332,327.43a57.2,57.2,0,0,1,19.68-22.27q-.26,5.77-.52,11.55C366.23,303.37,382,289,388,269.67a186.17,186.17,0,0,1-35.24,22.88,74.88,74.88,0,0,1,5.63-17.65,51.34,51.34,0,0,0-14.71,10.89q-.5-6.06-1-12.13l-16.48,13.79A295.79,295.79,0,0,1,343,225.88c-3.68,1.44-6.4,4.61-8.85,7.76a151.21,151.21,0,0,0-19.8,33.88q4-23.34,6-47c-7.08,11.64-10.32,25.22-12.92,38.64q-4.68,24.19-7,48.75c-.53,5.53-.92,11.35,1.33,16.41A74.64,74.64,0,0,1,311.08,299q.53,8.63,1.05,17.25c.12,2,.7,4.47,2.61,4.74a80.92,80.92,0,0,1,18.88-28.18A165.43,165.43,0,0,1,332,327.43Z"/><path class="cls-10" d="M378.93,69.29c1.77-1.51,4.27-1.87,6.11-3.28s2.92-4,4.71-5.63a15.14,15.14,0,0,1,6.12-3q6.06-1.87,12.25-3.34a3.69,3.69,0,0,1,3,.17,3.34,3.34,0,0,1,1.13,1.95,22.15,22.15,0,0,1-.4,12.1,65.71,65.71,0,0,1-4.81,11.22L400.87,91.7a16.05,16.05,0,0,0-11.5-7.9,19.05,19.05,0,0,1-4.2-.74,3.66,3.66,0,0,1-2.55-3.15,6.08,6.08,0,0,1-5.47-4A6.22,6.22,0,0,1,378.93,69.29Z"/><path class="cls-10" d="M435.5,93.82a28.46,28.46,0,0,0-9.13,6.93c-4.55,5.54-3.46,2.84-10.49,8.81-1.49-1.82-3.86-3.21-5.89-4.53a32,32,0,0,1-13.92-28.77c.91-11.19,5.45-21,18-23.84,1.61-.36,19,0,17.24,27.75C430.73,89,440,86.21,435.5,93.82Z"/><path class="cls-10" d="M451.29,85.5c-4.2-5.86-11.11-9-17.68-11.78-5.3,19.26-17.33,19-18.14,36.17a50.22,50.22,0,0,0,13,6.3,22.51,22.51,0,0,0,14.17-.21,18.7,18.7,0,0,0,5.25-3.1,20.36,20.36,0,0,0,3.43-27.38Z"/><path class="cls-10" d="M449.81,60.79c-8.75-.48-14.54.86-18.34,9.83a13.21,13.21,0,0,0-.37,1.79,19.71,19.71,0,0,0,4.4,14.72,2.23,2.23,0,0,0,1.12.89c.72.22,1.43-.27,2.07-.64,3.63-2.19,8.12-2,12.34-2.53a38.55,38.55,0,0,0,6.39-1.41,17.68,17.68,0,0,0,6.92-9,15.7,15.7,0,0,0,.44-8A26.31,26.31,0,0,0,449.81,60.79Z"/><path class="cls-10" d="M432.53,75.77c-1.35,3.71-1.72,8.64-.39,15.21,2.54,12.58,10.07,12.78,9.78,37.24,32.12-24.07,28.24-44.59,19.7-55.43C457.38,67.41,438.42,59.6,432.53,75.77Z"/><path class="cls-10" d="M423.63,60.7a7.27,7.27,0,1,1-7.27-7.38A7.33,7.33,0,0,1,423.63,60.7Z"/><path class="cls-10" d="M420.86,60.7a4.51,4.51,0,1,1-4.5-4.58A4.53,4.53,0,0,1,420.86,60.7Z"/><path class="cls-10" d="M415,58.85a2,2,0,1,1-2-2.08A2.06,2.06,0,0,1,415,58.85Z"/><path class="cls-3" d="M398.53,347.81c-3.51-3.55-8.57-8.43-7.38-14.73S398,321.51,404.3,321.3c4.13-.14,9.25-.66,12.93,1.26,10,5.19,12.28,6.61,18.63,9.65,3.42-6.72-5.19-10.81-11-14.33-3.91-2.37-18.6-4.55-21.09-4.05a18.19,18.19,0,0,0-6.15,2.66,22.85,22.85,0,0,0-9.23,11,19.89,19.89,0,0,0-.3,13.87C390.67,348.59,395.4,349.17,398.53,347.81Z"/><path class="cls-3" d="M413.11,314.6a40.78,40.78,0,0,1-14-13.93c-.73-1.2-1.4-2.44-2.06-3.68-.49-.91-1-1.83-1.45-2.75a24.35,24.35,0,0,1-2.3-6.45c-1.9,1.56-9.59,4.93-11.84,5.87C384.7,299.13,401,315,401.87,319A25.77,25.77,0,0,1,413.11,314.6Z"/><path class="cls-4" d="M328.93,228.13c11.13-39.73,44.54-64.9,74.59-56.21s45.42,48,34.28,87.7-44.54,64.91-74.6,56.22S317.79,267.88,328.93,228.13Z"/><path class="cls-5" d="M366.89,496.06c0,3.09-3,0-3-6.16-12.14,9.25,0,27.73-12.14,37-3-6.15-3-15.4-6.06-15.4a12.14,12.14,0,0,0-2.81-1.5q1,15.7,2.13,31.39c.91,12.88,1.91,26,6.43,38,2.62,4.49,5.39,7.37,9.11.21q10.59-58.92,16.84-118.53Q378.73,448,379.93,435c-.3-.18-.57-.36-.9-.53C373,456,369.93,474.5,366.89,496.06Z"/><path class="cls-4" d="M393.9,278.15c1.18-13.35,2.3-27.22-2.26-39.79s-16.55-23.45-29.67-22c-15.5,1.75-24.63,18.81-27.4,34.4-2.38,13.42-2.08,27.15-1.72,40.77q2.89,109.29,10,218.4a12.14,12.14,0,0,1,2.81,1.5c3,0,3,9.25,6.06,15.4,12.14-9.23,0-27.71,12.14-37,0,6.16,3,9.25,3,6.16,3-21.56,6.07-40.06,12.14-61.62.33.17.6.35.9.53q1.19-12.83,2.31-25.63Q388.08,343.75,393.9,278.15Z"/><path class="cls-6" d="M330.23,292.72q3,62.38,7.44,124.7c.91,12.87,1.91,26,6.44,38,3.58,10.87,6.47,8.08,9.1.2q10.59-58.92,16.85-118.54c1.55-14.77,2.89-29.58,4.21-44.39Z"/><path class="cls-4" d="M464.19,64.18a23.53,23.53,0,0,0-10.1-12.6c-7.65-4.69-16.89-5.51-25.81-6-17.87-.86-75-4.5-80.88,89.84,4.25,62.09-56.18,61.43-58.53,195.38a7.43,7.43,0,0,0,7.94,7.6c134.87-10.95,180-148.37,131.32-203-2.61-6.1-.25-15.68-9.4-23.45a14.33,14.33,0,0,0-2.31-1.6c-.3-.18-.6-.33-.93-.49.11-.12.27-.22.39-.34,7-6,5.94-3.27,10.49-8.81a28.46,28.46,0,0,1,9.13-6.93c7.25-3.79,15.83-6,21.92-10.38a17.68,17.68,0,0,0,6.92-9A16.29,16.29,0,0,0,464.19,64.18Z"/><path class="cls-11" d="M330.51,224.94c9.09-12.32,15.16-12.32,27.29-9.24-9.1,15.4-12.13,33.89-15.16,52.37,3-3.07,6.06-9.24,12.13-12.32v12.32c15.16-3.07,18.19-15.4,33.36-6.16,6.06-9.24,12.13-15.4,18.19-24.64,3,3.08,3,6.16,3,12.32,12.12,0,9.09-21.57,21.22-12.32,6.25-19.06,9.64-38.11,16.07-56.16a90,90,0,0,0-5.83-24.84c-9.2,21.53-26.91,43.44-46.63,40.94,3-6.16-6.06-6.16-3-12.32H379V172.57c-18.2,3.07-21.23,21.57-36.39,27.72,0-9.24,9.09-15.4,0-24.65a44.56,44.56,0,0,1-9,10c-5.74,9.4-12.57,19.09-19.15,31.21a128.06,128.06,0,0,1,16.05-13.45Z"/><path class="cls-5" d="M430.58,237.27c-12.13-9.25-9.1,12.32-21.22,12.32,0-6.16,0-9.24-3-12.32-6.06,9.24-12.13,15.4-18.19,24.64-15.17-9.24-18.2,3.09-33.36,6.16V255.75c-6.07,3.08-9.1,9.25-12.13,12.32,3-18.48,6.06-37,15.16-52.37-12.13-3.08-18.2-3.08-27.29,9.24V203.37a128.06,128.06,0,0,0-16.05,13.45c-12.76,23.53-24.57,56.25-25.59,114a7.43,7.43,0,0,0,7.94,7.6c105.3-8.55,155.89-94.19,149.84-157.31C440.22,199.16,436.83,218.21,430.58,237.27Z"/><path class="cls-4" d="M464.19,64.18a23.53,23.53,0,0,0-10.1-12.6c-7.65-4.69-16.89-5.51-25.81-6-17.87-.86-75-4.5-80.88,89.84,1.47,21.52-4.83,35.51-13.79,50.17a44.56,44.56,0,0,0,9-10c9.09,9.25,0,15.41,0,24.65,15.16-6.15,18.19-24.65,36.39-27.72v12.32h12.13c-3,6.16,6.07,6.16,3,12.32,19.72,2.5,37.43-19.41,46.63-40.94a70.18,70.18,0,0,0-12.69-20.83c-2.61-6.1-.25-15.68-9.4-23.45a14.33,14.33,0,0,0-2.31-1.6c-.3-.18-.6-.33-.93-.49.11-.12.27-.22.39-.34,7-6,5.94-3.27,10.49-8.81a28.46,28.46,0,0,1,9.13-6.93c7.25-3.79,15.83-6,21.92-10.38a17.68,17.68,0,0,0,6.92-9A16.29,16.29,0,0,0,464.19,64.18Z"/><path class="cls-7" d="M332,327.43a57.2,57.2,0,0,1,19.68-22.27q-.26,5.77-.52,11.55C366.23,303.37,382,289,388,269.67a186.17,186.17,0,0,1-35.24,22.88,74.88,74.88,0,0,1,5.63-17.65,51.34,51.34,0,0,0-14.71,10.89q-.5-6.06-1-12.13l-16.48,13.79A295.79,295.79,0,0,1,343,225.88c-3.68,1.44-6.4,4.61-8.85,7.76a151.21,151.21,0,0,0-19.8,33.88q4-23.34,6-47c-7.08,11.64-10.32,25.22-12.92,38.64q-4.68,24.19-7,48.75c-.53,5.53-.92,11.35,1.33,16.41A74.64,74.64,0,0,1,311.08,299q.53,8.63,1.05,17.25c.12,2,.7,4.47,2.61,4.74a80.92,80.92,0,0,1,18.88-28.18A165.43,165.43,0,0,1,332,327.43Z"/><path class="cls-12" d="M378.93,69.29c1.77-1.51,4.27-1.87,6.11-3.28s2.92-4,4.71-5.63a15.14,15.14,0,0,1,6.12-3q6.06-1.87,12.25-3.34a3.69,3.69,0,0,1,3,.17,3.34,3.34,0,0,1,1.13,1.95,22.15,22.15,0,0,1-.4,12.1,65.71,65.71,0,0,1-4.81,11.22L400.87,91.7a16.05,16.05,0,0,0-11.5-7.9,19.05,19.05,0,0,1-4.2-.74,3.66,3.66,0,0,1-2.55-3.15,6.08,6.08,0,0,1-5.47-4A6.22,6.22,0,0,1,378.93,69.29Z"/><path class="cls-13" d="M435.5,93.82a28.46,28.46,0,0,0-9.13,6.93c-4.55,5.54-3.46,2.84-10.49,8.81-1.49-1.82-3.86-3.21-5.89-4.53a32,32,0,0,1-13.92-28.77c.91-11.19,5.45-21,18-23.84,1.61-.36,19,0,17.24,27.75C430.73,89,440,86.21,435.5,93.82Z"/><path class="cls-14" d="M451.29,85.5c-4.2-5.86-11.11-9-17.68-11.78-5.3,19.26-17.33,19-18.14,36.17a50.22,50.22,0,0,0,13,6.3,22.51,22.51,0,0,0,14.17-.21,18.7,18.7,0,0,0,5.25-3.1,20.36,20.36,0,0,0,3.43-27.38Z"/><path class="cls-15" d="M449.81,60.79c-8.75-.48-14.54.86-18.34,9.83a13.21,13.21,0,0,0-.37,1.79,19.71,19.71,0,0,0,4.4,14.72,2.23,2.23,0,0,0,1.12.89c.72.22,1.43-.27,2.07-.64,3.63-2.19,8.12-2,12.34-2.53a38.55,38.55,0,0,0,6.39-1.41,17.68,17.68,0,0,0,6.92-9,15.7,15.7,0,0,0,.44-8A26.31,26.31,0,0,0,449.81,60.79Z"/><path class="cls-16" d="M432.53,75.77c-1.35,3.71-1.72,8.64-.39,15.21,2.54,12.58,10.07,12.78,9.78,37.24,32.12-24.07,28.24-44.59,19.7-55.43C457.38,67.41,438.42,59.6,432.53,75.77Z"/><path class="cls-17" d="M423.63,60.7a7.27,7.27,0,1,1-7.27-7.38A7.33,7.33,0,0,1,423.63,60.7Z"/><path class="cls-14" d="M420.86,60.7a4.51,4.51,0,1,1-4.5-4.58A4.53,4.53,0,0,1,420.86,60.7Z"/><path class="cls-10" d="M415,58.85a2,2,0,1,1-2-2.08A2.06,2.06,0,0,1,415,58.85Z"/><path class="cls-18" d="M522,319.69v27.05c-30.36,7.25-60.83-7.94-69.86-34.57-8.56-25.26,8.73-54.24,37.48-62.82,29.55-8.81,61.25,5.24,71.17,32,1.81,4.88,1.85,10.44,1.92,15.69.23,16.74.08,33.48.08,50.92H530.33q0-25.66,0-51.26c0-9.72-5.14-17.64-15.21-19.45-7.51-1.36-18.84-.68-23.35,3.55-5.54,5.2-8.33,15.22-7.64,22.82.91,10.13,11.42,13.88,21.88,15.24C510.83,319.49,515.77,319.39,522,319.69Z"/><ellipse class="cls-10" cx="450.1" cy="343.78" rx="11.97" ry="5.52" transform="translate(-6.44 678.96) rotate(-73.66)"/></svg>